<svg xmlns="http://www.w3.org/2000/svg" viewBox="0 -0.5 90 90" shape-rendering="crispEdges">
<metadata>Made with Pixels to Svg https://codepen.io/shshaw/pen/XbxvNj</metadata>
<path stroke="#01c38b" d="M29 0h6M37 0h24M28 1h26M55 1h7M27 2h30M58 2h5M26 3h38M25 4h1M48 4h17M24 5h1M47 5h19M23 6h1M46 6h21M22 7h1M45 7h6M52 7h1M54 7h14M21 8h1M44 8h25M20 9h1M43 9h27M19 10h1M42 10h15M58 10h13M18 11h1M41 11h31M17 12h1M40 12h33M16 13h1M39 13h21M61 13h5M67 13h7M15 14h1M38 14h32M71 14h4M14 15h1M37 15h15M53 15h7M61 15h15M13 16h1M36 16h41M12 17h1M35 17h37M73 17h5M11 18h1M34 18h45M10 19h1M33 19h1M56 19h24M9 20h1M32 20h1M57 20h24M8 21h1M31 21h1M58 21h24M7 22h1M30 22h1M59 22h24M6 23h1M29 23h1M60 23h10M71 23h2M74 23h10M5 24h1M28 24h1M61 24h24M4 25h1M27 25h1M62 25h24M3 26h1M26 26h1M63 26h24M2 27h1M25 27h1M64 27h19M84 27h4M1 28h1M24 28h1M65 28h24M23 29h1M66 29h24M0 30h1M22 30h1M67 30h23M0 31h1M22 31h1M0 32h1M22 32h1M0 33h1M22 33h1M0 34h1M22 34h1M0 35h1M22 35h1M0 36h1M22 36h1M0 37h1M22 37h1M0 38h1M22 38h1M0 39h1M22 39h1M0 40h1M22 40h1M0 41h1M22 41h1M0 42h1M22 42h1M0 43h1M22 43h1M46 43h2M49 43h26M76 43h5M82 43h8M0 44h1M22 44h1M46 44h44M0 45h1M22 45h1M46 45h44M0 46h1M22 46h1M46 46h5M52 46h11M64 46h16M81 46h9M0 47h1M22 47h1M46 47h5M52 47h5M58 47h32M0 48h1M22 48h1M46 48h20M67 48h20M88 48h2M0 49h1M22 49h1M67 49h23M0 50h1M22 50h1M67 50h23M0 51h1M22 51h1M68 51h10M79 51h11M0 52h1M22 52h1M67 52h4M72 52h16M89 52h1M0 53h1M22 53h1M67 53h14M83 53h7M0 54h1M22 54h1M67 54h2M70 54h16M87 54h3M0 55h1M22 55h1M67 55h23M0 56h1M22 56h1M67 56h23M0 57h1M22 57h1M67 57h23M0 58h1M22 58h1M67 58h3M71 58h12M84 58h6M0 59h1M22 59h1M67 59h8M76 59h14M0 60h1M23 60h1M66 60h24M1 61h1M24 61h1M65 61h8M74 61h15M2 62h1M64 62h24M3 63h1M26 63h1M63 63h11M75 63h12M4 64h1M27 64h1M62 64h24M5 65h1M28 65h1M61 65h21M83 65h2M6 66h1M29 66h1M60 66h4M65 66h19M7 67h1M30 67h1M59 67h24M8 68h1M31 68h1M58 68h24M9 69h1M32 69h1M57 69h7M65 69h1M67 69h13M10 70h1M33 70h1M56 70h24M11 71h1M34 71h22M57 71h12M70 71h5M76 71h3M12 72h1M35 72h8M44 72h13M58 72h20M13 73h1M36 73h28M65 73h12M14 74h1M37 74h1M39 74h26M66 74h10M15 75h1M38 75h37M16 76h1M39 76h35M17 77h1M40 77h33M18 78h1M41 78h29M71 78h1M19 79h1M42 79h2M45 79h1M47 79h24M20 80h1M43 80h27M21 81h1M44 81h5M50 81h18M22 82h1M45 82h19M65 82h3M23 83h1M46 83h14M61 83h6M24 84h1M48 84h18M25 85h1M48 85h13M62 85h3M26 86h38M27 87h34M62 87h1M28 88h5M34 88h28M29 89h14M44 89h6M51 89h9" />
<path stroke="#01c38a" d="M35 0h1M53 7h1M83 27h1M80 46h1M71 52h1M86 54h1M83 58h1M74 63h1M80 69h1M56 71h1M38 74h1M65 74h1M44 79h1M68 81h1M47 84h1M50 89h1" />
<path stroke="#00c38b" d="M36 0h1M54 1h1M57 2h1M51 7h1M57 10h1M60 13h1M66 13h1M60 15h1M72 17h1M0 29h1M48 43h1M75 43h1M81 43h1M51 46h1M63 46h1M51 47h1M57 47h1M66 48h1M87 48h1M78 51h1M81 53h1M69 54h1M75 59h1M66 69h1M69 71h1M75 71h1M57 72h1M60 83h1M33 88h1M60 89h1" />
<path stroke="#01c28b" d="M70 14h1M52 15h1M70 23h1M73 23h1M67 51h1M88 52h1M82 53h1M70 58h1M73 61h1M25 62h1M82 65h1M64 66h1M64 69h1M43 72h1M64 73h1M70 78h1M46 79h1M49 81h1M64 82h1M61 85h1M61 87h1M43 89h1" />
</svg>