<?xml version="1.0" encoding="UTF-8"?>
<!DOCTYPE svg PUBLIC "-//W3C//DTD SVG 1.1//EN" "http://www.w3.org/Graphics/SVG/1.1/DTD/svg11.dtd">
<svg xmlns="http://www.w3.org/2000/svg" version="1.1" width="760px" height="580px" style="shape-rendering:geometricPrecision; text-rendering:geometricPrecision; image-rendering:optimizeQuality; fill-rule:evenodd; clip-rule:evenodd" xmlns:xlink="http://www.w3.org/1999/xlink">
<g><path style="opacity:1" fill="#01c38a" d="M 378.5,-0.5 C 379.167,-0.5 379.833,-0.5 380.5,-0.5C 506.352,183.219 632.686,366.552 759.5,549.5C 759.5,559.5 759.5,569.5 759.5,579.5C 666.167,579.5 572.833,579.5 479.5,579.5C 454.854,554.521 430.188,529.521 405.5,504.5C 438.153,471.347 470.986,438.347 504,405.5C 498.536,397.857 492.036,390.857 484.5,384.5C 449.5,419.167 414.5,453.833 379.5,488.5C 344.68,454.18 310.014,419.68 275.5,385C 274.833,384.333 274.167,384.333 273.5,385C 267.333,391.167 261.167,397.333 255,403.5C 254.333,404.167 254.333,404.833 255,405.5C 288.014,438.347 320.847,471.347 353.5,504.5C 328.812,529.521 304.146,554.521 279.5,579.5C 186.167,579.5 92.8333,579.5 -0.5,579.5C -0.5,569.5 -0.5,559.5 -0.5,549.5C 126.314,366.552 252.648,183.219 378.5,-0.5 Z M 316.5,111.5 C 358.739,111.17 400.906,111.503 443,112.5C 542.5,258 642,403.5 741.5,549C 657.167,549.667 572.833,549.667 488.5,549C 470.319,530.986 452.319,512.819 434.5,494.5C 464.167,464.5 493.833,434.5 523.5,404.5C 509.167,389.5 494.5,374.833 479.5,360.5C 446.167,393.5 412.833,426.5 379.5,459.5C 346.347,426.847 313.347,394.014 280.5,361C 279.833,360.333 279.167,360.333 278.5,361C 263.986,375.347 249.653,389.847 235.5,404.5C 265.167,434.5 294.833,464.5 324.5,494.5C 306.681,512.819 288.681,530.986 270.5,549C 186.167,549.667 101.833,549.667 17.5,549C 117.388,403.286 217.054,257.453 316.5,111.5 Z"/></g>
</svg>
