<svg xmlns="http://www.w3.org/2000/svg" viewBox="0 -0.5 760 580" shape-rendering="crispEdges">
<metadata>Made with Pixels to Svg https://codepen.io/shshaw/pen/XbxvNj</metadata>
<path stroke="#01c38b" d="M370 0h20M370 1h20M370 2h20M370 3h20M370 4h20M370 5h20M370 6h20M370 7h20M370 8h20M370 9h20M360 10h40M360 11h40M360 12h40M360 13h40M360 14h40M360 15h25M386 15h14M360 16h40M360 17h40M360 18h40M360 19h40M350 20h60M350 21h60M350 22h60M350 23h60M350 24h60M350 25h60M350 26h60M350 27h60M350 28h60M350 29h60M350 30h60M350 31h60M350 32h60M350 33h60M350 34h60M350 35h60M350 36h60M350 37h60M350 38h60M350 39h60M340 40h80M340 41h48M389 41h31M340 42h80M340 43h80M340 44h80M340 45h80M340 46h80M340 47h80M340 48h80M340 49h80M330 50h100M330 51h100M330 52h100M330 53h100M330 54h100M330 55h18M349 55h81M330 56h100M330 57h100M330 58h100M330 59h100M320 60h120M320 61h120M320 62h120M320 63h120M320 64h120M320 65h120M320 66h120M320 67h120M320 68h120M320 69h120M320 70h120M320 71h120M320 72h120M320 73h120M320 74h120M320 75h120M320 76h120M320 77h120M320 78h120M320 79h120M310 80h140M310 81h140M310 82h140M310 83h140M310 84h49M360 84h90M310 85h140M310 86h140M310 87h140M310 88h140M310 89h73M384 89h66M300 90h160M300 91h160M300 92h160M300 93h160M300 94h160M300 95h160M300 96h160M300 97h160M300 98h160M300 99h160M300 100h91M392 100h68M300 101h160M300 102h160M300 103h160M300 104h160M300 105h160M300 106h160M300 107h160M300 108h160M300 109h160M290 110h10M460 110h10M290 111h10M460 111h10M290 112h10M460 112h10M290 113h10M460 113h10M290 114h10M460 114h10M290 115h10M460 115h10M290 116h10M460 116h10M290 117h10M460 117h10M290 118h10M460 118h10M290 119h10M460 119h10M280 120h10M470 120h10M280 121h10M470 121h10M280 122h10M470 122h10M280 123h10M470 123h10M280 124h10M470 124h10M280 125h10M470 125h10M280 126h10M470 126h10M280 127h10M470 127h10M280 128h10M470 128h10M280 129h10M470 129h10M280 130h10M470 130h10M280 131h10M470 131h10M280 132h10M470 132h10M280 133h10M470 133h10M280 134h10M470 134h10M280 135h10M470 135h10M280 136h10M470 136h10M280 137h10M470 137h10M280 138h10M470 138h10M280 139h10M470 139h10M270 140h10M480 140h10M270 141h10M480 141h10M270 142h10M480 142h10M270 143h10M480 143h10M270 144h10M480 144h10M270 145h10M480 145h10M270 146h10M480 146h10M270 147h10M480 147h10M270 148h10M480 148h10M270 149h10M480 149h10M260 150h10M490 150h10M260 151h10M490 151h10M260 152h10M490 152h10M260 153h10M490 153h10M260 154h10M490 154h10M260 155h10M490 155h10M260 156h10M490 156h10M260 157h10M490 157h10M260 158h10M490 158h10M260 159h10M490 159h10M260 160h10M490 160h10M260 161h10M490 161h10M260 162h10M490 162h10M260 163h10M490 163h10M260 164h10M490 164h10M260 165h10M490 165h10M260 166h10M490 166h10M260 167h10M490 167h10M260 168h10M490 168h10M260 169h10M490 169h10M250 170h10M500 170h10M250 171h10M500 171h10M250 172h10M500 172h10M250 173h10M500 173h10M250 174h10M500 174h10M250 175h10M500 175h10M250 176h10M500 176h10M250 177h10M500 177h10M250 178h10M500 178h10M250 179h10M500 179h10M240 180h10M510 180h10M240 181h10M510 181h10M241 182h9M510 182h10M240 183h10M510 183h10M240 184h10M510 184h10M240 185h10M510 185h10M240 186h10M510 186h10M240 187h10M510 187h10M240 188h10M510 188h10M240 189h10M510 189h10M230 190h10M520 190h10M230 191h10M520 191h10M230 192h10M520 192h10M230 193h10M520 193h10M230 194h10M520 194h10M230 195h10M520 195h10M230 196h10M520 196h10M230 197h10M520 197h10M230 198h10M520 198h10M230 199h10M520 199h10M230 200h10M520 200h10M230 201h10M520 201h10M230 202h10M520 202h10M230 203h10M520 203h10M230 204h10M520 204h10M230 205h10M520 205h10M230 206h10M520 206h10M230 207h10M520 207h10M230 208h10M520 208h10M230 209h10M520 209h10M220 210h10M530 210h10M220 211h10M530 211h10M220 212h10M530 212h10M220 213h10M530 213h10M220 214h10M530 214h10M220 215h10M530 215h10M220 216h10M530 216h10M220 217h10M530 217h10M220 218h10M530 218h10M220 219h10M530 219h10M210 220h10M540 220h10M210 221h10M540 221h10M210 222h10M540 222h10M210 223h10M540 223h10M210 224h10M540 224h10M210 225h10M540 225h10M210 226h10M540 226h10M210 227h10M540 227h10M210 228h10M540 228h10M210 229h10M540 229h10M210 230h10M540 230h10M210 231h10M540 231h10M210 232h10M540 232h10M210 233h10M540 233h10M210 234h10M540 234h10M210 235h10M540 235h10M210 236h10M540 236h10M210 237h10M540 237h10M210 238h10M540 238h10M210 239h10M540 239h10M200 240h10M550 240h10M200 241h10M550 241h10M200 242h10M550 242h10M200 243h10M550 243h10M200 244h10M550 244h10M200 245h10M550 245h10M200 246h10M550 246h10M200 247h10M550 247h10M200 248h10M550 248h10M200 249h10M550 249h10M190 250h10M560 250h10M190 251h10M560 251h10M190 252h10M560 252h10M190 253h10M560 253h10M190 254h10M560 254h10M190 255h10M560 255h10M190 256h10M560 256h10M190 257h10M560 257h10M190 258h10M560 258h10M190 259h10M560 259h10M190 260h10M560 260h10M190 261h10M560 261h10M190 262h10M560 262h10M190 263h10M560 263h10M190 264h10M560 264h10M190 265h10M560 265h10M190 266h10M560 266h10M190 267h10M560 267h10M190 268h10M560 268h10M190 269h10M560 269h10M180 270h10M570 270h10M180 271h10M570 271h10M180 272h10M570 272h10M180 273h10M570 273h10M180 274h10M570 274h10M180 275h10M570 275h10M180 276h10M570 276h10M180 277h10M570 277h10M180 278h10M570 278h10M180 279h10M570 279h10M170 280h10M580 280h10M170 281h10M580 281h10M170 282h10M580 282h10M170 283h10M580 283h10M170 284h10M580 284h10M170 285h10M580 285h10M170 286h10M580 286h10M170 287h10M580 287h10M170 288h10M580 288h10M170 289h10M580 289h10M170 290h10M580 290h10M170 291h10M580 291h10M170 292h10M580 292h10M170 293h10M580 293h10M170 294h7M178 294h2M580 294h10M170 295h10M580 295h10M170 296h10M580 296h10M170 297h10M580 297h10M170 298h10M580 298h10M170 299h10M580 299h10M160 300h10M590 300h10M160 301h10M590 301h10M160 302h10M590 302h10M160 303h10M590 303h10M160 304h10M590 304h10M160 305h10M590 305h10M160 306h10M590 306h10M160 307h10M590 307h10M160 308h10M590 308h10M160 309h10M590 309h10M150 310h10M600 310h10M150 311h10M600 311h10M150 312h10M600 312h10M150 313h10M600 313h10M150 314h10M600 314h10M150 315h10M600 315h10M150 316h10M600 316h10M150 317h10M600 317h10M150 318h10M600 318h10M150 319h10M600 319h10M150 320h10M600 320h10M150 321h10M600 321h10M150 322h10M600 322h10M150 323h10M600 323h10M150 324h10M600 324h10M150 325h10M600 325h10M150 326h10M600 326h10M150 327h10M600 327h10M150 328h10M600 328h10M150 329h10M600 329h10M140 330h10M610 330h10M140 331h10M610 331h10M140 332h10M610 332h10M140 333h10M610 333h10M140 334h10M610 334h10M140 335h10M610 335h10M140 336h10M610 336h10M140 337h10M610 337h10M140 338h10M610 338h10M140 339h10M610 339h10M130 340h10M620 340h10M130 341h10M620 341h10M130 342h10M620 342h10M130 343h10M620 343h10M130 344h10M620 344h10M130 345h10M620 345h10M130 346h10M620 346h10M130 347h10M620 347h10M130 348h10M620 348h10M130 349h10M620 349h10M120 350h10M630 350h10M120 351h10M630 351h10M120 352h10M630 352h10M120 353h10M630 353h10M120 354h10M630 354h10M120 355h10M630 355h10M120 356h10M630 356h10M120 357h10M630 357h10M120 358h10M630 358h10M120 359h10M630 359h10M120 360h10M630 360h10M120 361h10M630 361h10M120 362h10M630 362h10M120 363h10M630 363h10M120 364h10M630 364h10M120 365h10M630 365h10M120 366h10M630 366h10M120 367h10M630 367h10M120 368h10M630 368h10M120 369h10M630 369h10M110 370h10M270 370h20M470 370h20M640 370h10M110 371h10M270 371h20M470 371h20M640 371h10M110 372h10M270 372h20M470 372h20M640 372h10M110 373h10M270 373h20M470 373h20M640 373h10M110 374h10M270 374h20M470 374h20M640 374h10M110 375h10M270 375h20M470 375h20M640 375h10M110 376h10M270 376h20M470 376h20M640 376h10M110 377h10M270 377h20M470 377h20M640 377h10M110 378h10M270 378h20M470 378h20M640 378h10M110 379h10M270 379h20M470 379h20M640 379h10M100 380h10M260 380h10M280 380h20M460 380h20M490 380h10M650 380h10M100 381h10M260 381h10M280 381h20M460 381h20M490 381h10M650 381h10M100 382h10M260 382h10M280 382h20M460 382h20M490 382h10M650 382h10M100 383h10M260 383h10M280 383h20M460 383h20M490 383h10M650 383h10M100 384h10M260 384h10M280 384h20M460 384h20M490 384h10M650 384h10M100 385h10M260 385h10M280 385h20M460 385h20M490 385h10M650 385h10M100 386h10M260 386h10M280 386h20M460 386h20M490 386h10M650 386h10M100 387h10M260 387h10M280 387h20M460 387h20M490 387h10M650 387h10M100 388h10M260 388h10M280 388h20M460 388h20M490 388h10M650 388h10M100 389h10M260 389h10M280 389h20M460 389h20M490 389h10M650 389h10M100 390h10M250 390h10M290 390h20M450 390h20M500 390h10M650 390h10M100 391h10M250 391h10M290 391h20M450 391h20M500 391h10M650 391h10M100 392h10M250 392h10M290 392h20M450 392h20M500 392h10M650 392h10M100 393h10M250 393h10M290 393h20M450 393h20M500 393h10M650 393h10M100 394h10M250 394h10M290 394h20M450 394h20M500 394h10M650 394h10M100 395h10M250 395h10M290 395h20M450 395h20M500 395h10M650 395h10M100 396h10M250 396h10M290 396h20M450 396h20M500 396h10M650 396h10M100 397h10M250 397h10M290 397h20M450 397h20M500 397h10M650 397h10M100 398h10M250 398h10M290 398h20M450 398h20M500 398h10M650 398h10M100 399h10M250 399h10M290 399h20M450 399h20M500 399h10M650 399h10M90 400h10M240 400h10M300 400h20M440 400h20M510 400h10M660 400h10M90 401h10M240 401h10M300 401h20M440 401h20M510 401h10M660 401h10M90 402h10M240 402h3M244 402h6M300 402h20M440 402h20M510 402h10M660 402h10M90 403h10M240 403h10M300 403h20M440 403h20M510 403h10M660 403h10M90 404h10M240 404h10M300 404h20M440 404h20M510 404h10M660 404h10M90 405h10M240 405h10M300 405h20M440 405h20M510 405h10M660 405h10M90 406h10M240 406h10M300 406h20M440 406h20M510 406h10M660 406h10M90 407h10M240 407h10M300 407h20M440 407h20M510 407h10M660 407h10M90 408h10M240 408h10M300 408h20M440 408h20M510 408h10M660 408h10M90 409h10M240 409h10M300 409h20M440 409h20M510 409h10M660 409h10M80 410h10M250 410h10M310 410h20M430 410h20M500 410h10M670 410h10M80 411h10M250 411h10M310 411h20M430 411h20M500 411h10M670 411h10M80 412h10M250 412h10M310 412h20M430 412h20M500 412h10M670 412h10M80 413h10M250 413h10M310 413h20M430 413h20M500 413h10M670 413h10M80 414h10M250 414h10M310 414h20M430 414h20M500 414h10M670 414h10M80 415h10M250 415h10M310 415h20M430 415h20M500 415h10M670 415h10M80 416h10M250 416h10M310 416h20M430 416h20M500 416h10M670 416h10M80 417h10M250 417h10M310 417h20M430 417h20M500 417h10M670 417h10M80 418h10M250 418h10M310 418h20M430 418h20M500 418h10M670 418h10M80 419h10M250 419h10M310 419h20M430 419h20M500 419h10M670 419h10M80 420h10M260 420h10M320 420h20M420 420h20M490 420h10M670 420h10M80 421h10M260 421h10M320 421h20M420 421h20M490 421h10M670 421h10M80 422h10M260 422h10M320 422h20M420 422h20M490 422h10M670 422h10M80 423h10M260 423h10M320 423h20M420 423h20M490 423h10M670 423h10M80 424h10M260 424h10M320 424h20M420 424h20M490 424h10M670 424h10M80 425h10M260 425h10M320 425h20M420 425h20M490 425h10M670 425h10M80 426h10M260 426h10M320 426h20M420 426h20M490 426h10M670 426h10M80 427h10M260 427h10M320 427h20M420 427h20M490 427h10M670 427h10M80 428h10M260 428h10M320 428h20M420 428h20M490 428h10M670 428h10M80 429h10M260 429h10M320 429h20M420 429h20M490 429h10M670 429h10M70 430h10M270 430h10M330 430h20M410 430h20M480 430h10M680 430h10M70 431h10M270 431h10M330 431h20M410 431h20M480 431h10M680 431h10M70 432h10M270 432h10M330 432h20M410 432h20M480 432h10M680 432h10M70 433h10M270 433h10M330 433h20M410 433h20M480 433h10M680 433h10M70 434h10M270 434h10M330 434h20M410 434h20M480 434h10M680 434h10M70 435h10M270 435h10M330 435h20M410 435h20M480 435h10M680 435h10M70 436h10M270 436h10M330 436h20M410 436h20M480 436h10M680 436h10M70 437h10M270 437h10M330 437h20M410 437h20M480 437h10M680 437h10M70 438h10M270 438h10M330 438h20M410 438h20M480 438h10M680 438h10M70 439h10M270 439h10M330 439h20M410 439h20M480 439h10M680 439h10M60 440h10M280 440h10M340 440h20M400 440h20M470 440h10M690 440h10M60 441h10M280 441h10M340 441h20M400 441h20M470 441h10M690 441h10M60 442h10M280 442h10M340 442h20M400 442h20M470 442h10M690 442h10M60 443h10M280 443h10M340 443h20M400 443h20M470 443h10M690 443h10M60 444h10M280 444h10M340 444h20M400 444h20M470 444h10M690 444h10M60 445h10M280 445h10M340 445h20M400 445h20M470 445h10M690 445h10M60 446h10M280 446h10M340 446h20M400 446h20M470 446h10M690 446h10M60 447h10M280 447h10M340 447h20M400 447h20M470 447h10M690 447h10M60 448h10M280 448h10M340 448h20M400 448h20M470 448h10M690 448h10M60 449h10M280 449h4M285 449h5M340 449h20M400 449h20M470 449h10M690 449h10M60 450h10M290 450h10M350 450h20M390 450h20M460 450h10M690 450h10M60 451h10M290 451h10M350 451h20M390 451h20M460 451h10M690 451h10M60 452h10M290 452h10M350 452h20M390 452h20M460 452h10M690 452h10M60 453h10M290 453h10M350 453h20M390 453h20M460 453h10M690 453h10M60 454h10M290 454h10M350 454h20M390 454h20M460 454h10M690 454h10M60 455h10M290 455h10M350 455h20M390 455h20M460 455h10M690 455h10M60 456h10M290 456h10M350 456h20M390 456h20M460 456h10M690 456h10M60 457h10M290 457h10M350 457h20M390 457h20M460 457h10M690 457h10M60 458h10M290 458h10M350 458h20M390 458h20M460 458h10M690 458h10M60 459h10M290 459h10M350 459h20M390 459h20M460 459h10M690 459h10M50 460h10M300 460h10M360 460h40M450 460h10M700 460h10M50 461h10M300 461h10M360 461h40M450 461h10M700 461h10M50 462h10M300 462h10M360 462h40M450 462h10M700 462h10M50 463h10M300 463h10M360 463h40M450 463h10M700 463h10M50 464h10M300 464h10M360 464h40M450 464h10M700 464h10M50 465h10M300 465h10M360 465h40M450 465h10M700 465h10M50 466h10M300 466h10M360 466h40M450 466h10M700 466h10M50 467h10M300 467h10M360 467h40M450 467h10M700 467h10M50 468h10M300 468h10M360 468h40M450 468h10M700 468h10M50 469h10M300 469h10M360 469h40M450 469h10M700 469h10M40 470h10M310 470h10M370 470h20M440 470h10M710 470h10M40 471h10M310 471h10M370 471h20M440 471h10M710 471h10M40 472h10M310 472h10M370 472h20M440 472h10M710 472h10M40 473h10M310 473h10M370 473h20M440 473h10M710 473h10M40 474h10M310 474h10M370 474h20M440 474h10M710 474h10M40 475h10M310 475h10M370 475h20M440 475h10M710 475h10M40 476h10M310 476h10M370 476h20M440 476h10M710 476h10M40 477h10M310 477h10M370 477h20M440 477h10M710 477h10M40 478h10M310 478h10M370 478h20M440 478h10M710 478h10M40 479h10M310 479h10M370 479h20M440 479h10M710 479h10M30 480h10M320 480h10M430 480h10M720 480h10M30 481h10M320 481h10M430 481h10M720 481h10M30 482h10M320 482h10M430 482h10M720 482h10M30 483h10M320 483h10M430 483h10M720 483h10M30 484h10M320 484h10M430 484h10M720 484h10M30 485h10M320 485h10M430 485h10M720 485h10M30 486h10M320 486h10M430 486h10M720 486h10M30 487h10M320 487h10M430 487h10M720 487h10M30 488h10M320 488h10M430 488h10M720 488h10M30 489h10M320 489h10M430 489h10M720 489h10M30 490h10M330 490h10M420 490h10M720 490h10M30 491h10M330 491h10M420 491h10M720 491h10M30 492h10M330 492h10M420 492h10M720 492h10M30 493h10M330 493h10M420 493h10M720 493h10M30 494h10M330 494h10M420 494h10M720 494h10M30 495h10M330 495h10M420 495h10M720 495h10M30 496h10M330 496h10M420 496h10M720 496h10M30 497h10M330 497h10M420 497h10M720 497h10M30 498h10M330 498h10M420 498h10M720 498h10M30 499h10M330 499h10M420 499h10M720 499h10M20 500h10M320 500h30M410 500h30M730 500h10M20 501h10M320 501h30M410 501h30M730 501h10M20 502h10M320 502h30M410 502h30M730 502h10M20 503h10M320 503h30M410 503h30M730 503h10M20 504h10M320 504h30M410 504h30M730 504h10M20 505h10M320 505h30M410 505h30M730 505h10M20 506h10M320 506h30M410 506h30M730 506h10M20 507h10M320 507h30M410 507h30M730 507h10M20 508h10M320 508h30M410 508h14M425 508h15M730 508h10M20 509h10M320 509h30M410 509h30M730 509h10M10 510h10M310 510h30M420 510h30M740 510h10M10 511h10M310 511h30M420 511h30M740 511h10M10 512h10M310 512h30M420 512h30M740 512h10M10 513h10M310 513h30M420 513h30M740 513h10M10 514h10M310 514h30M420 514h30M740 514h10M10 515h10M310 515h16M327 515h13M420 515h30M740 515h10M10 516h10M310 516h30M420 516h30M740 516h10M10 517h10M310 517h30M420 517h30M740 517h7M748 517h2M10 518h10M310 518h30M420 518h30M740 518h10M10 519h10M310 519h30M420 519h30M740 519h10M10 520h10M300 520h30M430 520h30M740 520h10M10 521h10M300 521h30M430 521h30M740 521h10M10 522h10M300 522h30M430 522h30M740 522h10M10 523h10M300 523h30M430 523h30M740 523h10M10 524h10M300 524h30M430 524h30M740 524h10M10 525h10M300 525h30M430 525h30M740 525h10M10 526h10M300 526h30M430 526h30M740 526h10M10 527h10M300 527h30M430 527h30M740 527h10M10 528h10M300 528h30M430 528h30M740 528h10M10 529h10M300 529h30M430 529h30M740 529h10M0 530h10M290 530h30M440 530h30M750 530h10M0 531h10M290 531h30M440 531h30M750 531h10M0 532h10M290 532h30M440 532h30M750 532h10M0 533h10M290 533h30M440 533h30M750 533h10M0 534h10M290 534h30M440 534h30M750 534h10M0 535h10M290 535h30M440 535h30M750 535h10M0 536h10M290 536h30M440 536h30M750 536h10M0 537h10M290 537h30M440 537h30M750 537h10M0 538h10M290 538h30M440 538h30M750 538h10M0 539h10M290 539h30M440 539h30M750 539h10M0 540h10M280 540h30M450 540h30M750 540h10M0 541h10M280 541h30M450 541h30M750 541h10M0 542h10M280 542h30M450 542h30M750 542h10M0 543h10M280 543h30M450 543h30M750 543h10M0 544h10M280 544h30M450 544h30M750 544h10M0 545h10M280 545h30M450 545h30M750 545h10M0 546h10M280 546h30M450 546h30M750 546h10M0 547h10M280 547h30M450 547h30M750 547h10M0 548h10M280 548h30M450 548h30M750 548h10M0 549h10M280 549h30M450 549h30M750 549h10M0 550h300M460 550h300M0 551h300M460 551h300M0 552h300M460 552h300M0 553h107M108 553h192M460 553h300M0 554h300M460 554h300M0 555h254M255 555h45M460 555h300M0 556h91M92 556h208M460 556h300M0 557h300M460 557h300M0 558h300M460 558h300M0 559h300M460 559h300M0 560h116M117 560h173M470 560h290M0 561h290M470 561h290M0 562h290M470 562h290M0 563h290M470 563h181M652 563h108M0 564h290M470 564h290M0 565h290M470 565h112M583 565h177M0 566h190M191 566h99M470 566h290M0 567h167M168 567h122M470 567h37M508 567h252M0 568h137M138 568h152M470 568h99M570 568h190M0 569h290M470 569h290M0 570h280M480 570h280M0 571h280M480 571h280M0 572h280M480 572h191M672 572h88M0 573h280M480 573h280M0 574h280M480 574h280M0 575h280M480 575h280M0 576h280M480 576h280M0 577h280M480 577h253M734 577h26M0 578h280M480 578h280M0 579h280M480 579h280" />
<path stroke="#00c38b" d="M385 15h1M388 41h1M348 55h1M424 508h1M747 517h1M651 563h1M190 566h1M137 568h1M569 568h1" />
<path stroke="#01c38a" d="M359 84h1M240 182h1M243 402h1M284 449h1M326 515h1M107 553h1M254 555h1M116 560h1M582 565h1M167 567h1" />
<path stroke="#01c28b" d="M383 89h1M391 100h1M177 294h1M91 556h1M507 567h1M671 572h1M733 577h1" />
</svg>