<?xml version="1.0" encoding="UTF-8"?>
<!DOCTYPE svg PUBLIC "-//W3C//DTD SVG 1.1//EN" "http://www.w3.org/Graphics/SVG/1.1/DTD/svg11.dtd">
<svg xmlns="http://www.w3.org/2000/svg" version="1.1" width="900px" height="900px" style="shape-rendering:geometricPrecision; text-rendering:geometricPrecision; image-rendering:optimizeQuality; fill-rule:evenodd; clip-rule:evenodd" xmlns:xlink="http://www.w3.org/1999/xlink">
<g><path style="opacity:1" fill="#01c38a" d="M 289.5,-0.5 C 396.167,-0.5 502.833,-0.5 609.5,-0.5C 705.833,96.5 802.5,193.167 899.5,289.5C 899.5,296.167 899.5,302.833 899.5,309.5C 822.833,309.667 746.166,309.5 669.5,309C 629.833,269.333 590.167,229.667 550.5,190C 483.167,189.333 415.833,189.333 348.5,190C 309,229.5 269.5,269 230,308.5C 229.333,402.5 229.333,496.5 230,590.5C 269.5,630 309,669.5 348.5,709C 415.833,709.667 483.167,709.667 550.5,709C 590,669.5 629.5,630 669,590.5C 669.5,556.835 669.667,523.168 669.5,489.5C 599.5,489.5 529.5,489.5 459.5,489.5C 459.5,469.5 459.5,449.5 459.5,429.5C 606.167,429.5 752.833,429.5 899.5,429.5C 899.5,489.5 899.5,549.5 899.5,609.5C 802.5,705.833 705.833,802.5 609.5,899.5C 502.833,899.5 396.167,899.5 289.5,899.5C 193.167,802.5 96.5,705.833 -0.5,609.5C -0.5,502.833 -0.5,396.167 -0.5,289.5C 96.5,193.167 193.167,96.5 289.5,-0.5 Z M 268.5,39.5 C 338.834,39.3333 409.167,39.5 479.5,40C 393,126.5 306.5,213 220,299.5C 219.333,399.5 219.333,499.5 220,599.5C 306.5,686 393,772.5 479.5,859C 409.167,859.667 338.833,859.667 268.5,859C 182.333,772.833 96.1667,686.667 10,600.5C 9.33333,499.833 9.33333,399.167 10,298.5C 96.368,212.299 182.535,125.965 268.5,39.5 Z"/></g>
</svg>
